<?xml version="1.0" encoding="UTF-8" standalone="no"?>
<!DOCTYPE svg PUBLIC "-//W3C//DTD SVG 1.1//EN"
 "http://www.w3.org/Graphics/SVG/1.1/DTD/svg11.dtd">
<!-- Generated by graphviz version 2.47.0 (20210316.0004)
 -->
<!-- Title: dependency&#45;cruiser output Pages: 1 -->
<svg width="1075pt" height="600pt"
 viewBox="0.00 0.00 1075.00 600.00" xmlns="http://www.w3.org/2000/svg" xmlns:xlink="http://www.w3.org/1999/xlink">
<g id="graph0" class="graph" transform="scale(1 1) rotate(0) translate(4 596)">
<title>dependency&#45;cruiser output</title>
<polygon fill="white" stroke="transparent" points="-4,4 -4,-596 1071,-596 1071,4 -4,4"/>
<g id="clust1" class="cluster">
<title>cluster_src</title>
<path fill="#ffffff" stroke="black" stroke-width="2" d="M20,-8C20,-8 1047,-8 1047,-8 1053,-8 1059,-14 1059,-20 1059,-20 1059,-572 1059,-572 1059,-578 1053,-584 1047,-584 1047,-584 20,-584 20,-584 14,-584 8,-578 8,-572 8,-572 8,-20 8,-20 8,-14 14,-8 20,-8"/>
<text text-anchor="middle" x="533.5" y="-572.8" font-family="Helvetica,sans-Serif" font-weight="bold" font-size="9.00">src</text>
</g>
<g id="clust2" class="cluster">
<title>cluster_src/components</title>
<path fill="#ffffff" stroke="black" stroke-width="2" d="M209,-42C209,-42 860,-42 860,-42 866,-42 872,-48 872,-54 872,-54 872,-386 872,-386 872,-392 866,-398 860,-398 860,-398 209,-398 209,-398 203,-398 197,-392 197,-386 197,-386 197,-54 197,-54 197,-48 203,-42 209,-42"/>
<text text-anchor="middle" x="534.5" y="-386.8" font-family="Helvetica,sans-Serif" font-weight="bold" font-size="9.00">components</text>
</g>
<g id="clust3" class="cluster">
<title>cluster_src/components/Button</title>
<path fill="#ffffff" stroke="black" stroke-width="2" d="M558,-50C558,-50 830.5,-50 830.5,-50 836.5,-50 842.5,-56 842.5,-62 842.5,-62 842.5,-90 842.5,-90 842.5,-96 836.5,-102 830.5,-102 830.5,-102 558,-102 558,-102 552,-102 546,-96 546,-90 546,-90 546,-62 546,-62 546,-56 552,-50 558,-50"/>
<text text-anchor="middle" x="694.25" y="-90.8" font-family="Helvetica,sans-Serif" font-weight="bold" font-size="9.00">Button</text>
</g>
<g id="clust4" class="cluster">
<title>cluster_src/components/CarSearchCard</title>
<path fill="#ffffff" stroke="black" stroke-width="2" d="M217,-164C217,-164 510,-164 510,-164 516,-164 522,-170 522,-176 522,-176 522,-234 522,-234 522,-240 516,-246 510,-246 510,-246 217,-246 217,-246 211,-246 205,-240 205,-234 205,-234 205,-176 205,-176 205,-170 211,-164 217,-164"/>
<text text-anchor="middle" x="363.5" y="-234.8" font-family="Helvetica,sans-Serif" font-weight="bold" font-size="9.00">CarSearchCard</text>
</g>
<g id="clust5" class="cluster">
<title>cluster_src/components/Card</title>
<path fill="#ffffff" stroke="black" stroke-width="2" d="M558,-110C558,-110 827.5,-110 827.5,-110 833.5,-110 839.5,-116 839.5,-122 839.5,-122 839.5,-150 839.5,-150 839.5,-156 833.5,-162 827.5,-162 827.5,-162 558,-162 558,-162 552,-162 546,-156 546,-150 546,-150 546,-122 546,-122 546,-116 552,-110 558,-110"/>
<text text-anchor="middle" x="692.75" y="-150.8" font-family="Helvetica,sans-Serif" font-weight="bold" font-size="9.00">Card</text>
</g>
<g id="clust6" class="cluster">
<title>cluster_src/components/DropDown</title>
<path fill="#ffffff" stroke="black" stroke-width="2" d="M542,-290C542,-290 839.5,-290 839.5,-290 845.5,-290 851.5,-296 851.5,-302 851.5,-302 851.5,-360 851.5,-360 851.5,-366 845.5,-372 839.5,-372 839.5,-372 542,-372 542,-372 536,-372 530,-366 530,-360 530,-360 530,-302 530,-302 530,-296 536,-290 542,-290"/>
<text text-anchor="middle" x="690.75" y="-360.8" font-family="Helvetica,sans-Serif" font-weight="bold" font-size="9.00">DropDown</text>
</g>
<g id="clust7" class="cluster">
<title>cluster_src/components/Input</title>
<path fill="#ffffff" stroke="black" stroke-width="2" d="M558,-170C558,-170 827.5,-170 827.5,-170 833.5,-170 839.5,-176 839.5,-182 839.5,-182 839.5,-210 839.5,-210 839.5,-216 833.5,-222 827.5,-222 827.5,-222 558,-222 558,-222 552,-222 546,-216 546,-210 546,-210 546,-182 546,-182 546,-176 552,-170 558,-170"/>
<text text-anchor="middle" x="692.75" y="-210.8" font-family="Helvetica,sans-Serif" font-weight="bold" font-size="9.00">Input</text>
</g>
<g id="clust8" class="cluster">
<title>cluster_src/components/LoadingOverflow</title>
<path fill="#ffffff" stroke="black" stroke-width="2" d="M558,-230C558,-230 852,-230 852,-230 858,-230 864,-236 864,-242 864,-242 864,-270 864,-270 864,-276 858,-282 852,-282 852,-282 558,-282 558,-282 552,-282 546,-276 546,-270 546,-270 546,-242 546,-242 546,-236 552,-230 558,-230"/>
<text text-anchor="middle" x="705" y="-270.8" font-family="Helvetica,sans-Serif" font-weight="bold" font-size="9.00">LoadingOverflow</text>
</g>
<g id="clust9" class="cluster">
<title>cluster_src/hoc</title>
<path fill="#ffffff" stroke="black" stroke-width="2" d="M752,-406C752,-406 1039,-406 1039,-406 1045,-406 1051,-412 1051,-418 1051,-418 1051,-506 1051,-506 1051,-512 1045,-518 1039,-518 1039,-518 752,-518 752,-518 746,-518 740,-512 740,-506 740,-506 740,-418 740,-418 740,-412 746,-406 752,-406"/>
<text text-anchor="middle" x="895.5" y="-506.8" font-family="Helvetica,sans-Serif" font-weight="bold" font-size="9.00">hoc</text>
</g>
<g id="clust10" class="cluster">
<title>cluster_src/hoc/withLabel</title>
<path fill="#ffffff" stroke="black" stroke-width="2" d="M780,-440C780,-440 1031,-440 1031,-440 1037,-440 1043,-446 1043,-452 1043,-452 1043,-480 1043,-480 1043,-486 1037,-492 1031,-492 1031,-492 780,-492 780,-492 774,-492 768,-486 768,-480 768,-480 768,-452 768,-452 768,-446 774,-440 780,-440"/>
<text text-anchor="middle" x="905.5" y="-480.8" font-family="Helvetica,sans-Serif" font-weight="bold" font-size="9.00">withLabel</text>
</g>
<g id="clust11" class="cluster">
<title>cluster_src/services</title>
<path fill="#ffffff" stroke="black" stroke-width="2" d="M305.5,-466C305.5,-466 610.5,-466 610.5,-466 616.5,-466 622.5,-472 622.5,-478 622.5,-478 622.5,-520 622.5,-520 622.5,-526 616.5,-532 610.5,-532 610.5,-532 305.5,-532 305.5,-532 299.5,-532 293.5,-526 293.5,-520 293.5,-520 293.5,-478 293.5,-478 293.5,-472 299.5,-466 305.5,-466"/>
<text text-anchor="middle" x="458" y="-520.8" font-family="Helvetica,sans-Serif" font-weight="bold" font-size="9.00">services</text>
</g>
<g id="clust12" class="cluster">
<title>cluster_src/utils</title>
<path fill="#ffffff" stroke="black" stroke-width="2" d="M554.5,-406C554.5,-406 607.5,-406 607.5,-406 613.5,-406 619.5,-412 619.5,-418 619.5,-418 619.5,-446 619.5,-446 619.5,-452 613.5,-458 607.5,-458 607.5,-458 554.5,-458 554.5,-458 548.5,-458 542.5,-452 542.5,-446 542.5,-446 542.5,-418 542.5,-418 542.5,-412 548.5,-406 554.5,-406"/>
<text text-anchor="middle" x="581" y="-446.8" font-family="Helvetica,sans-Serif" font-weight="bold" font-size="9.00">utils</text>
</g>
<!-- src/App.js -->
<g id="node1" class="node">
<title>src/App.js</title>
<g id="a_node1"><a xlink:href="src/App.js" xlink:title="App.js">
<path fill="#ffffcc" stroke="black" d="M164.5,-133C164.5,-133 122.5,-133 122.5,-133 119.5,-133 116.5,-130 116.5,-127 116.5,-127 116.5,-121 116.5,-121 116.5,-118 119.5,-115 122.5,-115 122.5,-115 164.5,-115 164.5,-115 167.5,-115 170.5,-118 170.5,-121 170.5,-121 170.5,-127 170.5,-127 170.5,-130 167.5,-133 164.5,-133"/>
<text text-anchor="middle" x="143.5" y="-121.8" font-family="Helvetica,sans-Serif" font-size="9.00">App.js</text>
</a>
</g>
</g>
<!-- src/App.scss -->
<g id="node2" class="node">
<title>src/App.scss</title>
<g id="a_node2"><a xlink:href="src/App.scss" xlink:title="App.scss">
<path fill="#ffffcc" stroke="black" d="M261,-34C261,-34 219,-34 219,-34 216,-34 213,-31 213,-28 213,-28 213,-22 213,-22 213,-19 216,-16 219,-16 219,-16 261,-16 261,-16 264,-16 267,-19 267,-22 267,-22 267,-28 267,-28 267,-31 264,-34 261,-34"/>
<text text-anchor="middle" x="240" y="-22.8" font-family="Helvetica,sans-Serif" font-size="9.00">App.scss</text>
</a>
</g>
</g>
<!-- src/App.js&#45;&gt;src/App.scss -->
<g id="edge1" class="edge">
<title>src/App.js&#45;&gt;src/App.scss</title>
<path fill="none" stroke="#000000" stroke-width="2" stroke-opacity="0.200000" d="M153.22,-114.86C169.89,-97.4 206.34,-59.21 225.93,-38.69"/>
<polygon fill="#000000" fill-opacity="0.200000" stroke="#000000" stroke-width="2" stroke-opacity="0.200000" points="227.68,-39.9 230.3,-34.11 224.64,-37 227.68,-39.9"/>
</g>
<!-- src/components/CarSearchCard/index.js -->
<g id="node3" class="node">
<title>src/components/CarSearchCard/index.js</title>
<g id="a_node3"><a xlink:href="src/components/CarSearchCard/index.js" xlink:title="index.js">
<path fill="#ffffcc" stroke="black" d="M261,-205C261,-205 219,-205 219,-205 216,-205 213,-202 213,-199 213,-199 213,-193 213,-193 213,-190 216,-187 219,-187 219,-187 261,-187 261,-187 264,-187 267,-190 267,-193 267,-193 267,-199 267,-199 267,-202 264,-205 261,-205"/>
<text text-anchor="middle" x="240" y="-193.8" font-family="Helvetica,sans-Serif" font-size="9.00">index.js</text>
</a>
</g>
</g>
<!-- src/App.js&#45;&gt;src/components/CarSearchCard/index.js -->
<g id="edge2" class="edge">
<title>src/App.js&#45;&gt;src/components/CarSearchCard/index.js</title>
<path fill="none" stroke="#000000" stroke-width="2" stroke-opacity="0.200000" d="M170.78,-127.89C177.58,-130.1 184.31,-133.57 189,-139 202,-154.04 183.82,-168.13 197,-183 199.79,-186.15 203.32,-188.54 207.15,-190.36"/>
<polygon fill="#000000" fill-opacity="0.200000" stroke="#000000" stroke-width="2" stroke-opacity="0.200000" points="206.57,-192.39 212.92,-192.64 208.11,-188.48 206.57,-192.39"/>
</g>
<!-- src/components/CarSearchCard/CarSearchCardContainer.js -->
<g id="node13" class="node">
<title>src/components/CarSearchCard/CarSearchCardContainer.js</title>
<g id="a_node13"><a xlink:href="src/components/CarSearchCard/CarSearchCardContainer.js" xlink:title="CarSearchCardContainer.js">
<path fill="#ffffcc" stroke="black" d="M405,-220C405,-220 286,-220 286,-220 283,-220 280,-217 280,-214 280,-214 280,-208 280,-208 280,-205 283,-202 286,-202 286,-202 405,-202 405,-202 408,-202 411,-205 411,-208 411,-208 411,-214 411,-214 411,-217 408,-220 405,-220"/>
<text text-anchor="middle" x="345.5" y="-208.8" font-family="Helvetica,sans-Serif" font-size="9.00">CarSearchCardContainer.js</text>
</a>
</g>
</g>
<!-- src/components/CarSearchCard/index.js&#45;&gt;src/components/CarSearchCard/CarSearchCardContainer.js -->
<g id="edge16" class="edge">
<title>src/components/CarSearchCard/index.js&#45;&gt;src/components/CarSearchCard/CarSearchCardContainer.js</title>
<path fill="none" stroke="#000000" stroke-width="2" stroke-opacity="0.200000" d="M267.12,-199.79C269.89,-200.19 272.8,-200.61 275.79,-201.04"/>
<polygon fill="#000000" fill-opacity="0.200000" stroke="#000000" stroke-width="2" stroke-opacity="0.200000" points="275.79,-203.16 282.03,-201.95 276.39,-199.01 275.79,-203.16"/>
</g>
<!-- src/components/Button/Button.js -->
<g id="node4" class="node">
<title>src/components/Button/Button.js</title>
<g id="a_node4"><a xlink:href="src/components/Button/Button.js" xlink:title="Button.js">
<path fill="#ffffcc" stroke="black" d="M705.5,-76C705.5,-76 663.5,-76 663.5,-76 660.5,-76 657.5,-73 657.5,-70 657.5,-70 657.5,-64 657.5,-64 657.5,-61 660.5,-58 663.5,-58 663.5,-58 705.5,-58 705.5,-58 708.5,-58 711.5,-61 711.5,-64 711.5,-64 711.5,-70 711.5,-70 711.5,-73 708.5,-76 705.5,-76"/>
<text text-anchor="middle" x="684.5" y="-64.8" font-family="Helvetica,sans-Serif" font-size="9.00">Button.js</text>
</a>
</g>
</g>
<!-- src/components/Button/Button.scss -->
<g id="node5" class="node">
<title>src/components/Button/Button.scss</title>
<g id="a_node5"><a xlink:href="src/components/Button/Button.scss" xlink:title="Button.scss">
<path fill="#ffffcc" stroke="black" d="M828.5,-76C828.5,-76 777.5,-76 777.5,-76 774.5,-76 771.5,-73 771.5,-70 771.5,-70 771.5,-64 771.5,-64 771.5,-61 774.5,-58 777.5,-58 777.5,-58 828.5,-58 828.5,-58 831.5,-58 834.5,-61 834.5,-64 834.5,-64 834.5,-70 834.5,-70 834.5,-73 831.5,-76 828.5,-76"/>
<text text-anchor="middle" x="803" y="-64.8" font-family="Helvetica,sans-Serif" font-size="9.00">Button.scss</text>
</a>
</g>
</g>
<!-- src/components/Button/Button.js&#45;&gt;src/components/Button/Button.scss -->
<g id="edge3" class="edge">
<title>src/components/Button/Button.js&#45;&gt;src/components/Button/Button.scss</title>
<path fill="none" stroke="#000000" stroke-width="2" stroke-opacity="0.200000" d="M711.64,-67C727.42,-67 747.76,-67 765.15,-67"/>
<polygon fill="#000000" fill-opacity="0.200000" stroke="#000000" stroke-width="2" stroke-opacity="0.200000" points="765.41,-69.1 771.41,-67 765.41,-64.9 765.41,-69.1"/>
</g>
<!-- src/components/Button/index.js -->
<g id="node6" class="node">
<title>src/components/Button/index.js</title>
<g id="a_node6"><a xlink:href="src/components/Button/index.js" xlink:title="index.js">
<path fill="#ffffcc" stroke="black" d="M602,-76C602,-76 560,-76 560,-76 557,-76 554,-73 554,-70 554,-70 554,-64 554,-64 554,-61 557,-58 560,-58 560,-58 602,-58 602,-58 605,-58 608,-61 608,-64 608,-64 608,-70 608,-70 608,-73 605,-76 602,-76"/>
<text text-anchor="middle" x="581" y="-64.8" font-family="Helvetica,sans-Serif" font-size="9.00">index.js</text>
</a>
</g>
</g>
<!-- src/components/Button/index.js&#45;&gt;src/components/Button/Button.js -->
<g id="edge4" class="edge">
<title>src/components/Button/index.js&#45;&gt;src/components/Button/Button.js</title>
<path fill="none" stroke="#000000" stroke-width="2" stroke-opacity="0.200000" d="M608.14,-67C621.28,-67 637.33,-67 651.23,-67"/>
<polygon fill="#000000" fill-opacity="0.200000" stroke="#000000" stroke-width="2" stroke-opacity="0.200000" points="651.45,-69.1 657.45,-67 651.45,-64.9 651.45,-69.1"/>
</g>
<!-- src/components/CarSearchCard/CarSearchCard.js -->
<g id="node7" class="node">
<title>src/components/CarSearchCard/CarSearchCard.js</title>
<g id="a_node7"><a xlink:href="src/components/CarSearchCard/CarSearchCard.js" xlink:title="CarSearchCard.js">
<path fill="#ffffcc" stroke="black" d="M508,-205C508,-205 430,-205 430,-205 427,-205 424,-202 424,-199 424,-199 424,-193 424,-193 424,-190 427,-187 430,-187 430,-187 508,-187 508,-187 511,-187 514,-190 514,-193 514,-193 514,-199 514,-199 514,-202 511,-205 508,-205"/>
<text text-anchor="middle" x="469" y="-193.8" font-family="Helvetica,sans-Serif" font-size="9.00">CarSearchCard.js</text>
</a>
</g>
</g>
<!-- src/components/CarSearchCard/CarSearchCard.js&#45;&gt;src/components/Button/index.js -->
<g id="edge6" class="edge">
<title>src/components/CarSearchCard/CarSearchCard.js&#45;&gt;src/components/Button/index.js</title>
<path fill="none" stroke="#000000" stroke-width="2" stroke-opacity="0.200000" d="M477.66,-186.61C488.37,-173.22 508.06,-147.64 522,-124 526.24,-116.81 524.83,-113.56 530,-107 538.44,-96.3 550.27,-86.67 560.3,-79.54"/>
<polygon fill="#000000" fill-opacity="0.200000" stroke="#000000" stroke-width="2" stroke-opacity="0.200000" points="561.61,-81.19 565.36,-76.05 559.23,-77.73 561.61,-81.19"/>
</g>
<!-- src/hoc/withLabel/index.js -->
<g id="node8" class="node">
<title>src/hoc/withLabel/index.js</title>
<g id="a_node8"><a xlink:href="src/hoc/withLabel/index.js" xlink:title="index.js">
<path fill="#ffffcc" stroke="black" d="M824,-466C824,-466 782,-466 782,-466 779,-466 776,-463 776,-460 776,-460 776,-454 776,-454 776,-451 779,-448 782,-448 782,-448 824,-448 824,-448 827,-448 830,-451 830,-454 830,-454 830,-460 830,-460 830,-463 827,-466 824,-466"/>
<text text-anchor="middle" x="803" y="-454.8" font-family="Helvetica,sans-Serif" font-size="9.00">index.js</text>
</a>
</g>
</g>
<!-- src/components/CarSearchCard/CarSearchCard.js&#45;&gt;src/hoc/withLabel/index.js -->
<g id="edge5" class="edge">
<title>src/components/CarSearchCard/CarSearchCard.js&#45;&gt;src/hoc/withLabel/index.js</title>
<path fill="none" stroke="#000000" stroke-width="2" stroke-opacity="0.200000" d="M470.26,-205.35C471.6,-234.78 479.81,-326.48 530,-375 561.34,-405.3 582.55,-389.51 624,-403 676,-419.92 687.35,-429.25 740,-444 749.65,-446.7 760.28,-449.13 769.97,-451.13"/>
<polygon fill="#000000" fill-opacity="0.200000" stroke="#000000" stroke-width="2" stroke-opacity="0.200000" points="769.57,-453.19 775.87,-452.32 770.41,-449.08 769.57,-453.19"/>
</g>
<!-- src/components/Card/index.js -->
<g id="node9" class="node">
<title>src/components/Card/index.js</title>
<g id="a_node9"><a xlink:href="src/components/Card/index.js" xlink:title="index.js">
<path fill="#ffffcc" stroke="black" d="M602,-136C602,-136 560,-136 560,-136 557,-136 554,-133 554,-130 554,-130 554,-124 554,-124 554,-121 557,-118 560,-118 560,-118 602,-118 602,-118 605,-118 608,-121 608,-124 608,-124 608,-130 608,-130 608,-133 605,-136 602,-136"/>
<text text-anchor="middle" x="581" y="-124.8" font-family="Helvetica,sans-Serif" font-size="9.00">index.js</text>
</a>
</g>
</g>
<!-- src/components/CarSearchCard/CarSearchCard.js&#45;&gt;src/components/Card/index.js -->
<g id="edge7" class="edge">
<title>src/components/CarSearchCard/CarSearchCard.js&#45;&gt;src/components/Card/index.js</title>
<path fill="none" stroke="#000000" stroke-width="2" stroke-opacity="0.200000" d="M484.38,-186.98C503.82,-174.79 538.54,-153.01 560.36,-139.32"/>
<polygon fill="#000000" fill-opacity="0.200000" stroke="#000000" stroke-width="2" stroke-opacity="0.200000" points="561.65,-140.99 565.62,-136.02 559.42,-137.43 561.65,-140.99"/>
</g>
<!-- src/components/DropDown/index.js -->
<g id="node10" class="node">
<title>src/components/DropDown/index.js</title>
<g id="a_node10"><a xlink:href="src/components/DropDown/index.js" xlink:title="index.js">
<path fill="#ffffcc" stroke="black" d="M602,-346C602,-346 560,-346 560,-346 557,-346 554,-343 554,-340 554,-340 554,-334 554,-334 554,-331 557,-328 560,-328 560,-328 602,-328 602,-328 605,-328 608,-331 608,-334 608,-334 608,-340 608,-340 608,-343 605,-346 602,-346"/>
<text text-anchor="middle" x="581" y="-334.8" font-family="Helvetica,sans-Serif" font-size="9.00">index.js</text>
</a>
</g>
</g>
<!-- src/components/CarSearchCard/CarSearchCard.js&#45;&gt;src/components/DropDown/index.js -->
<g id="edge8" class="edge">
<title>src/components/CarSearchCard/CarSearchCard.js&#45;&gt;src/components/DropDown/index.js</title>
<path fill="none" stroke="#000000" stroke-width="2" stroke-opacity="0.200000" d="M471.71,-205.16C476.5,-228.32 492.3,-289.67 530,-322 535.11,-326.38 541.46,-329.48 547.91,-331.68"/>
<polygon fill="#000000" fill-opacity="0.200000" stroke="#000000" stroke-width="2" stroke-opacity="0.200000" points="547.47,-333.74 553.82,-333.45 548.67,-329.72 547.47,-333.74"/>
</g>
<!-- src/components/Input/index.js -->
<g id="node11" class="node">
<title>src/components/Input/index.js</title>
<g id="a_node11"><a xlink:href="src/components/Input/index.js" xlink:title="index.js">
<path fill="#ffffcc" stroke="black" d="M602,-196C602,-196 560,-196 560,-196 557,-196 554,-193 554,-190 554,-190 554,-184 554,-184 554,-181 557,-178 560,-178 560,-178 602,-178 602,-178 605,-178 608,-181 608,-184 608,-184 608,-190 608,-190 608,-193 605,-196 602,-196"/>
<text text-anchor="middle" x="581" y="-184.8" font-family="Helvetica,sans-Serif" font-size="9.00">index.js</text>
</a>
</g>
</g>
<!-- src/components/CarSearchCard/CarSearchCard.js&#45;&gt;src/components/Input/index.js -->
<g id="edge9" class="edge">
<title>src/components/CarSearchCard/CarSearchCard.js&#45;&gt;src/components/Input/index.js</title>
<path fill="none" stroke="#000000" stroke-width="2" stroke-opacity="0.200000" d="M514.11,-192.39C525.4,-191.47 537.33,-190.49 547.89,-189.63"/>
<polygon fill="#000000" fill-opacity="0.200000" stroke="#000000" stroke-width="2" stroke-opacity="0.200000" points="548.12,-191.72 553.93,-189.13 547.78,-187.53 548.12,-191.72"/>
</g>
<!-- src/components/LoadingOverflow/index.js -->
<g id="node12" class="node">
<title>src/components/LoadingOverflow/index.js</title>
<g id="a_node12"><a xlink:href="src/components/LoadingOverflow/index.js" xlink:title="index.js">
<path fill="#ffffcc" stroke="black" d="M602,-256C602,-256 560,-256 560,-256 557,-256 554,-253 554,-250 554,-250 554,-244 554,-244 554,-241 557,-238 560,-238 560,-238 602,-238 602,-238 605,-238 608,-241 608,-244 608,-244 608,-250 608,-250 608,-253 605,-256 602,-256"/>
<text text-anchor="middle" x="581" y="-244.8" font-family="Helvetica,sans-Serif" font-size="9.00">index.js</text>
</a>
</g>
</g>
<!-- src/components/CarSearchCard/CarSearchCard.js&#45;&gt;src/components/LoadingOverflow/index.js -->
<g id="edge10" class="edge">
<title>src/components/CarSearchCard/CarSearchCard.js&#45;&gt;src/components/LoadingOverflow/index.js</title>
<path fill="none" stroke="#000000" stroke-width="2" stroke-opacity="0.200000" d="M488.3,-205.06C500.14,-210.86 515.92,-218.5 530,-225 537.55,-228.48 545.79,-232.16 553.36,-235.49"/>
<polygon fill="#000000" fill-opacity="0.200000" stroke="#000000" stroke-width="2" stroke-opacity="0.200000" points="552.67,-237.48 559,-237.96 554.35,-233.63 552.67,-237.48"/>
</g>
<!-- src/hoc/withLabel/withLabel.js -->
<g id="node26" class="node">
<title>src/hoc/withLabel/withLabel.js</title>
<g id="a_node26"><a xlink:href="src/hoc/withLabel/withLabel.js" xlink:title="withLabel.js">
<path fill="#ffffcc" stroke="black" d="M939,-466C939,-466 886,-466 886,-466 883,-466 880,-463 880,-460 880,-460 880,-454 880,-454 880,-451 883,-448 886,-448 886,-448 939,-448 939,-448 942,-448 945,-451 945,-454 945,-454 945,-460 945,-460 945,-463 942,-466 939,-466"/>
<text text-anchor="middle" x="912.5" y="-454.8" font-family="Helvetica,sans-Serif" font-size="9.00">withLabel.js</text>
</a>
</g>
</g>
<!-- src/hoc/withLabel/index.js&#45;&gt;src/hoc/withLabel/withLabel.js -->
<g id="edge28" class="edge">
<title>src/hoc/withLabel/index.js&#45;&gt;src/hoc/withLabel/withLabel.js</title>
<path fill="none" stroke="#000000" stroke-width="2" stroke-opacity="0.200000" d="M830.02,-457C843.18,-457 859.39,-457 873.88,-457"/>
<polygon fill="#000000" fill-opacity="0.200000" stroke="#000000" stroke-width="2" stroke-opacity="0.200000" points="873.97,-459.1 879.97,-457 873.97,-454.9 873.97,-459.1"/>
</g>
<!-- src/components/Card/Card.js -->
<g id="node16" class="node">
<title>src/components/Card/Card.js</title>
<g id="a_node16"><a xlink:href="src/components/Card/Card.js" xlink:title="Card.js">
<path fill="#ffffcc" stroke="black" d="M705.5,-136C705.5,-136 663.5,-136 663.5,-136 660.5,-136 657.5,-133 657.5,-130 657.5,-130 657.5,-124 657.5,-124 657.5,-121 660.5,-118 663.5,-118 663.5,-118 705.5,-118 705.5,-118 708.5,-118 711.5,-121 711.5,-124 711.5,-124 711.5,-130 711.5,-130 711.5,-133 708.5,-136 705.5,-136"/>
<text text-anchor="middle" x="684.5" y="-124.8" font-family="Helvetica,sans-Serif" font-size="9.00">Card.js</text>
</a>
</g>
</g>
<!-- src/components/Card/index.js&#45;&gt;src/components/Card/Card.js -->
<g id="edge18" class="edge">
<title>src/components/Card/index.js&#45;&gt;src/components/Card/Card.js</title>
<path fill="none" stroke="#000000" stroke-width="2" stroke-opacity="0.200000" d="M608.14,-127C621.28,-127 637.33,-127 651.23,-127"/>
<polygon fill="#000000" fill-opacity="0.200000" stroke="#000000" stroke-width="2" stroke-opacity="0.200000" points="651.45,-129.1 657.45,-127 651.45,-124.9 651.45,-129.1"/>
</g>
<!-- src/components/DropDown/DropDown.js -->
<g id="node18" class="node">
<title>src/components/DropDown/DropDown.js</title>
<g id="a_node18"><a xlink:href="src/components/DropDown/DropDown.js" xlink:title="DropDown.js">
<path fill="#ffffcc" stroke="black" d="M713.5,-346C713.5,-346 655.5,-346 655.5,-346 652.5,-346 649.5,-343 649.5,-340 649.5,-340 649.5,-334 649.5,-334 649.5,-331 652.5,-328 655.5,-328 655.5,-328 713.5,-328 713.5,-328 716.5,-328 719.5,-331 719.5,-334 719.5,-334 719.5,-340 719.5,-340 719.5,-343 716.5,-346 713.5,-346"/>
<text text-anchor="middle" x="684.5" y="-334.8" font-family="Helvetica,sans-Serif" font-size="9.00">DropDown.js</text>
</a>
</g>
</g>
<!-- src/components/DropDown/index.js&#45;&gt;src/components/DropDown/DropDown.js -->
<g id="edge22" class="edge">
<title>src/components/DropDown/index.js&#45;&gt;src/components/DropDown/DropDown.js</title>
<path fill="none" stroke="#000000" stroke-width="2" stroke-opacity="0.200000" d="M608.14,-337C618.84,-337 631.47,-337 643.3,-337"/>
<polygon fill="#000000" fill-opacity="0.200000" stroke="#000000" stroke-width="2" stroke-opacity="0.200000" points="643.4,-339.1 649.4,-337 643.4,-334.9 643.4,-339.1"/>
</g>
<!-- src/components/Input/Input.js -->
<g id="node22" class="node">
<title>src/components/Input/Input.js</title>
<g id="a_node22"><a xlink:href="src/components/Input/Input.js" xlink:title="Input.js">
<path fill="#ffffcc" stroke="black" d="M705.5,-196C705.5,-196 663.5,-196 663.5,-196 660.5,-196 657.5,-193 657.5,-190 657.5,-190 657.5,-184 657.5,-184 657.5,-181 660.5,-178 663.5,-178 663.5,-178 705.5,-178 705.5,-178 708.5,-178 711.5,-181 711.5,-184 711.5,-184 711.5,-190 711.5,-190 711.5,-193 708.5,-196 705.5,-196"/>
<text text-anchor="middle" x="684.5" y="-184.8" font-family="Helvetica,sans-Serif" font-size="9.00">Input.js</text>
</a>
</g>
</g>
<!-- src/components/Input/index.js&#45;&gt;src/components/Input/Input.js -->
<g id="edge25" class="edge">
<title>src/components/Input/index.js&#45;&gt;src/components/Input/Input.js</title>
<path fill="none" stroke="#000000" stroke-width="2" stroke-opacity="0.200000" d="M608.14,-187C621.28,-187 637.33,-187 651.23,-187"/>
<polygon fill="#000000" fill-opacity="0.200000" stroke="#000000" stroke-width="2" stroke-opacity="0.200000" points="651.45,-189.1 657.45,-187 651.45,-184.9 651.45,-189.1"/>
</g>
<!-- src/components/LoadingOverflow/LoadingOverflow.js -->
<g id="node24" class="node">
<title>src/components/LoadingOverflow/LoadingOverflow.js</title>
<g id="a_node24"><a xlink:href="src/components/LoadingOverflow/LoadingOverflow.js" xlink:title="LoadingOverflow.js">
<path fill="#ffffcc" stroke="black" d="M726,-256C726,-256 643,-256 643,-256 640,-256 637,-253 637,-250 637,-250 637,-244 637,-244 637,-241 640,-238 643,-238 643,-238 726,-238 726,-238 729,-238 732,-241 732,-244 732,-244 732,-250 732,-250 732,-253 729,-256 726,-256"/>
<text text-anchor="middle" x="684.5" y="-244.8" font-family="Helvetica,sans-Serif" font-size="9.00">LoadingOverflow.js</text>
</a>
</g>
</g>
<!-- src/components/LoadingOverflow/index.js&#45;&gt;src/components/LoadingOverflow/LoadingOverflow.js -->
<g id="edge27" class="edge">
<title>src/components/LoadingOverflow/index.js&#45;&gt;src/components/LoadingOverflow/LoadingOverflow.js</title>
<path fill="none" stroke="#000000" stroke-width="2" stroke-opacity="0.200000" d="M608.14,-247C615.16,-247 623.01,-247 630.92,-247"/>
<polygon fill="#000000" fill-opacity="0.200000" stroke="#000000" stroke-width="2" stroke-opacity="0.200000" points="630.97,-249.1 636.97,-247 630.97,-244.9 630.97,-249.1"/>
</g>
<!-- src/components/CarSearchCard/CarSearchCardContainer.js&#45;&gt;src/components/CarSearchCard/CarSearchCard.js -->
<g id="edge12" class="edge">
<title>src/components/CarSearchCard/CarSearchCardContainer.js&#45;&gt;src/components/CarSearchCard/CarSearchCard.js</title>
<path fill="none" stroke="#000000" stroke-width="2" stroke-opacity="0.200000" d="M411.16,-203.02C413.32,-202.75 415.46,-202.49 417.59,-202.22"/>
<polygon fill="#000000" fill-opacity="0.200000" stroke="#000000" stroke-width="2" stroke-opacity="0.200000" points="418.22,-204.26 423.92,-201.44 417.71,-200.09 418.22,-204.26"/>
</g>
<!-- src/services/CarService.js -->
<g id="node14" class="node">
<title>src/services/CarService.js</title>
<g id="a_node14"><a xlink:href="src/services/CarService.js" xlink:title="CarService.js">
<path fill="#ffffcc" stroke="black" d="M498.5,-492C498.5,-492 439.5,-492 439.5,-492 436.5,-492 433.5,-489 433.5,-486 433.5,-486 433.5,-480 433.5,-480 433.5,-477 436.5,-474 439.5,-474 439.5,-474 498.5,-474 498.5,-474 501.5,-474 504.5,-477 504.5,-480 504.5,-480 504.5,-486 504.5,-486 504.5,-489 501.5,-492 498.5,-492"/>
<text text-anchor="middle" x="469" y="-480.8" font-family="Helvetica,sans-Serif" font-size="9.00">CarService.js</text>
</a>
</g>
</g>
<!-- src/components/CarSearchCard/CarSearchCardContainer.js&#45;&gt;src/services/CarService.js -->
<g id="edge11" class="edge">
<title>src/components/CarSearchCard/CarSearchCardContainer.js&#45;&gt;src/services/CarService.js</title>
<path fill="none" stroke="#000000" stroke-width="2" stroke-opacity="0.200000" d="M350.54,-220.05C368.27,-259.74 439.25,-418.65 461.38,-468.18"/>
<polygon fill="#000000" fill-opacity="0.200000" stroke="#000000" stroke-width="2" stroke-opacity="0.200000" points="459.58,-469.29 463.94,-473.92 463.41,-467.58 459.58,-469.29"/>
</g>
<!-- src/typedefs.js -->
<g id="node31" class="node">
<title>src/typedefs.js</title>
<g id="a_node31"><a xlink:href="src/typedefs.js" xlink:title="typedefs.js">
<path fill="#ffffcc" stroke="black" d="M605,-558C605,-558 557,-558 557,-558 554,-558 551,-555 551,-552 551,-552 551,-546 551,-546 551,-543 554,-540 557,-540 557,-540 605,-540 605,-540 608,-540 611,-543 611,-546 611,-546 611,-552 611,-552 611,-555 608,-558 605,-558"/>
<text text-anchor="middle" x="581" y="-546.8" font-family="Helvetica,sans-Serif" font-size="9.00">typedefs.js</text>
</a>
</g>
</g>
<!-- src/services/CarService.js&#45;&gt;src/typedefs.js -->
<g id="edge33" class="edge">
<title>src/services/CarService.js&#45;&gt;src/typedefs.js</title>
<path fill="none" stroke="#000000" stroke-width="2" stroke-opacity="0.200000" d="M478.02,-492.09C488.75,-503.7 508.88,-523.64 530,-535 534.62,-537.49 539.73,-539.57 544.86,-541.29"/>
<polygon fill="#000000" fill-opacity="0.200000" stroke="#000000" stroke-width="2" stroke-opacity="0.200000" points="544.51,-543.39 550.86,-543.17 545.76,-539.38 544.51,-543.39"/>
</g>
<!-- src/utils/timeUtils.js -->
<g id="node32" class="node">
<title>src/utils/timeUtils.js</title>
<g id="a_node32"><a xlink:href="src/utils/timeUtils.js" xlink:title="timeUtils.js">
<path fill="#ffffcc" stroke="black" d="M605.5,-432C605.5,-432 556.5,-432 556.5,-432 553.5,-432 550.5,-429 550.5,-426 550.5,-426 550.5,-420 550.5,-420 550.5,-417 553.5,-414 556.5,-414 556.5,-414 605.5,-414 605.5,-414 608.5,-414 611.5,-417 611.5,-420 611.5,-420 611.5,-426 611.5,-426 611.5,-429 608.5,-432 605.5,-432"/>
<text text-anchor="middle" x="581" y="-420.8" font-family="Helvetica,sans-Serif" font-size="9.00">timeUtils.js</text>
</a>
</g>
</g>
<!-- src/services/CarService.js&#45;&gt;src/utils/timeUtils.js -->
<g id="edge34" class="edge">
<title>src/services/CarService.js&#45;&gt;src/utils/timeUtils.js</title>
<path fill="none" stroke="#000000" stroke-width="2" stroke-opacity="0.200000" d="M486.71,-473.89C505.8,-463.47 537.1,-446.4 558.12,-434.93"/>
<polygon fill="#000000" fill-opacity="0.200000" stroke="#000000" stroke-width="2" stroke-opacity="0.200000" points="559.23,-436.72 563.5,-432 557.22,-433.03 559.23,-436.72"/>
</g>
<!-- src/services/mockData.js -->
<g id="node33" class="node">
<title>src/services/mockData.js</title>
<g id="a_node33"><a xlink:href="src/services/mockData.js" xlink:title="mockData.js">
<path fill="#ffffcc" stroke="black" d="M608.5,-499C608.5,-499 553.5,-499 553.5,-499 550.5,-499 547.5,-496 547.5,-493 547.5,-493 547.5,-487 547.5,-487 547.5,-484 550.5,-481 553.5,-481 553.5,-481 608.5,-481 608.5,-481 611.5,-481 614.5,-484 614.5,-487 614.5,-487 614.5,-493 614.5,-493 614.5,-496 611.5,-499 608.5,-499"/>
<text text-anchor="middle" x="581" y="-487.8" font-family="Helvetica,sans-Serif" font-size="9.00">mockData.js</text>
</a>
</g>
</g>
<!-- src/services/CarService.js&#45;&gt;src/services/mockData.js -->
<g id="edge35" class="edge">
<title>src/services/CarService.js&#45;&gt;src/services/mockData.js</title>
<path fill="none" stroke="#000000" stroke-width="2" stroke-opacity="0.200000" d="M504.5,-485.2C516.2,-485.94 529.34,-486.78 541.34,-487.54"/>
<polygon fill="#000000" fill-opacity="0.200000" stroke="#000000" stroke-width="2" stroke-opacity="0.200000" points="541.37,-489.65 547.5,-487.93 541.64,-485.45 541.37,-489.65"/>
</g>
<!-- src/components/CarSearchCard/CarSerachCard.test.js -->
<g id="node15" class="node">
<title>src/components/CarSearchCard/CarSerachCard.test.js</title>
<g id="a_node15"><a xlink:href="src/components/CarSearchCard/CarSerachCard.test.js" xlink:title="CarSerachCard.test.js">
<path fill="#ffffcc" stroke="black" d="M393,-190C393,-190 298,-190 298,-190 295,-190 292,-187 292,-184 292,-184 292,-178 292,-178 292,-175 295,-172 298,-172 298,-172 393,-172 393,-172 396,-172 399,-175 399,-178 399,-178 399,-184 399,-184 399,-187 396,-190 393,-190"/>
<text text-anchor="middle" x="345.5" y="-178.8" font-family="Helvetica,sans-Serif" font-size="9.00">CarSerachCard.test.js</text>
</a>
</g>
</g>
<!-- src/components/CarSearchCard/CarSerachCard.test.js&#45;&gt;src/components/Button/index.js -->
<g id="edge13" class="edge">
<title>src/components/CarSearchCard/CarSerachCard.test.js&#45;&gt;src/components/Button/index.js</title>
<path fill="none" stroke="#000000" stroke-width="2" stroke-opacity="0.200000" d="M365.21,-171.86C407.33,-151.3 509.52,-101.41 556.12,-78.66"/>
<polygon fill="#000000" fill-opacity="0.200000" stroke="#000000" stroke-width="2" stroke-opacity="0.200000" points="557.05,-80.54 561.52,-76.02 555.21,-76.77 557.05,-80.54"/>
</g>
<!-- src/components/CarSearchCard/CarSerachCard.test.js&#45;&gt;src/components/CarSearchCard/CarSearchCard.js -->
<g id="edge15" class="edge">
<title>src/components/CarSearchCard/CarSerachCard.test.js&#45;&gt;src/components/CarSearchCard/CarSearchCard.js</title>
<path fill="none" stroke="#000000" stroke-width="2" stroke-opacity="0.200000" d="M399.09,-187.49C405.24,-188.25 411.51,-189.03 417.64,-189.78"/>
<polygon fill="#000000" fill-opacity="0.200000" stroke="#000000" stroke-width="2" stroke-opacity="0.200000" points="417.49,-191.88 423.71,-190.53 418.01,-187.71 417.49,-191.88"/>
</g>
<!-- src/components/CarSearchCard/CarSerachCard.test.js&#45;&gt;src/components/LoadingOverflow/index.js -->
<g id="edge14" class="edge">
<title>src/components/CarSearchCard/CarSerachCard.test.js&#45;&gt;src/components/LoadingOverflow/index.js</title>
<path fill="none" stroke="#000000" stroke-width="2" stroke-opacity="0.200000" d="M398.69,-190.07C402.99,-191.73 407.16,-193.68 411,-196 418.55,-200.56 416.44,-206.45 424,-211 462.4,-234.11 514.32,-242.39 547.49,-245.35"/>
<polygon fill="#000000" fill-opacity="0.200000" stroke="#000000" stroke-width="2" stroke-opacity="0.200000" points="547.71,-247.48 553.87,-245.88 548.06,-243.29 547.71,-247.48"/>
</g>
<!-- src/components/Card/Card.scss -->
<g id="node17" class="node">
<title>src/components/Card/Card.scss</title>
<g id="a_node17"><a xlink:href="src/components/Card/Card.scss" xlink:title="Card.scss">
<path fill="#ffffcc" stroke="black" d="M825.5,-136C825.5,-136 780.5,-136 780.5,-136 777.5,-136 774.5,-133 774.5,-130 774.5,-130 774.5,-124 774.5,-124 774.5,-121 777.5,-118 780.5,-118 780.5,-118 825.5,-118 825.5,-118 828.5,-118 831.5,-121 831.5,-124 831.5,-124 831.5,-130 831.5,-130 831.5,-133 828.5,-136 825.5,-136"/>
<text text-anchor="middle" x="803" y="-124.8" font-family="Helvetica,sans-Serif" font-size="9.00">Card.scss</text>
</a>
</g>
</g>
<!-- src/components/Card/Card.js&#45;&gt;src/components/Card/Card.scss -->
<g id="edge17" class="edge">
<title>src/components/Card/Card.js&#45;&gt;src/components/Card/Card.scss</title>
<path fill="none" stroke="#000000" stroke-width="2" stroke-opacity="0.200000" d="M711.64,-127C728.25,-127 749.93,-127 767.89,-127"/>
<polygon fill="#000000" fill-opacity="0.200000" stroke="#000000" stroke-width="2" stroke-opacity="0.200000" points="768.32,-129.1 774.32,-127 768.32,-124.9 768.32,-129.1"/>
</g>
<!-- src/hoc/withValueOnChange.js -->
<g id="node19" class="node">
<title>src/hoc/withValueOnChange.js</title>
<g id="a_node19"><a xlink:href="src/hoc/withValueOnChange.js" xlink:title="withValueOnChange.js">
<path fill="#ffffcc" stroke="black" d="M852,-432C852,-432 754,-432 754,-432 751,-432 748,-429 748,-426 748,-426 748,-420 748,-420 748,-417 751,-414 754,-414 754,-414 852,-414 852,-414 855,-414 858,-417 858,-420 858,-420 858,-426 858,-426 858,-429 855,-432 852,-432"/>
<text text-anchor="middle" x="803" y="-420.8" font-family="Helvetica,sans-Serif" font-size="9.00">withValueOnChange.js</text>
</a>
</g>
</g>
<!-- src/components/DropDown/DropDown.js&#45;&gt;src/hoc/withValueOnChange.js -->
<g id="edge19" class="edge">
<title>src/components/DropDown/DropDown.js&#45;&gt;src/hoc/withValueOnChange.js</title>
<path fill="none" stroke="#000000" stroke-width="2" stroke-opacity="0.200000" d="M697.97,-346.2C718.81,-361.59 760.79,-392.58 784.56,-410.13"/>
<polygon fill="#000000" fill-opacity="0.200000" stroke="#000000" stroke-width="2" stroke-opacity="0.200000" points="783.55,-411.99 789.62,-413.86 786.04,-408.61 783.55,-411.99"/>
</g>
<!-- src/components/DropDown/DropDown.scss -->
<g id="node20" class="node">
<title>src/components/DropDown/DropDown.scss</title>
<g id="a_node20"><a xlink:href="src/components/DropDown/DropDown.scss" xlink:title="DropDown.scss">
<path fill="#ffffcc" stroke="black" d="M837.5,-346C837.5,-346 768.5,-346 768.5,-346 765.5,-346 762.5,-343 762.5,-340 762.5,-340 762.5,-334 762.5,-334 762.5,-331 765.5,-328 768.5,-328 768.5,-328 837.5,-328 837.5,-328 840.5,-328 843.5,-331 843.5,-334 843.5,-334 843.5,-340 843.5,-340 843.5,-343 840.5,-346 837.5,-346"/>
<text text-anchor="middle" x="803" y="-334.8" font-family="Helvetica,sans-Serif" font-size="9.00">DropDown.scss</text>
</a>
</g>
</g>
<!-- src/components/DropDown/DropDown.js&#45;&gt;src/components/DropDown/DropDown.scss -->
<g id="edge20" class="edge">
<title>src/components/DropDown/DropDown.js&#45;&gt;src/components/DropDown/DropDown.scss</title>
<path fill="none" stroke="#000000" stroke-width="2" stroke-opacity="0.200000" d="M719.51,-337C730.95,-337 743.9,-337 756.1,-337"/>
<polygon fill="#000000" fill-opacity="0.200000" stroke="#000000" stroke-width="2" stroke-opacity="0.200000" points="756.4,-339.1 762.4,-337 756.4,-334.9 756.4,-339.1"/>
</g>
<!-- src/components/DropDown/DropDown.test.js -->
<g id="node21" class="node">
<title>src/components/DropDown/DropDown.test.js</title>
<g id="a_node21"><a xlink:href="src/components/DropDown/DropDown.test.js" xlink:title="DropDown.test.js">
<path fill="#ffffcc" stroke="black" d="M618,-316C618,-316 544,-316 544,-316 541,-316 538,-313 538,-310 538,-310 538,-304 538,-304 538,-301 541,-298 544,-298 544,-298 618,-298 618,-298 621,-298 624,-301 624,-304 624,-304 624,-310 624,-310 624,-313 621,-316 618,-316"/>
<text text-anchor="middle" x="581" y="-304.8" font-family="Helvetica,sans-Serif" font-size="9.00">DropDown.test.js</text>
</a>
</g>
</g>
<!-- src/components/DropDown/DropDown.test.js&#45;&gt;src/components/DropDown/DropDown.js -->
<g id="edge21" class="edge">
<title>src/components/DropDown/DropDown.test.js&#45;&gt;src/components/DropDown/DropDown.js</title>
<path fill="none" stroke="#000000" stroke-width="2" stroke-opacity="0.200000" d="M612.45,-316C623.29,-319.2 635.61,-322.85 646.91,-326.19"/>
<polygon fill="#000000" fill-opacity="0.200000" stroke="#000000" stroke-width="2" stroke-opacity="0.200000" points="646.37,-328.21 652.72,-327.9 647.56,-324.19 646.37,-328.21"/>
</g>
<!-- src/components/Input/Input.js&#45;&gt;src/hoc/withValueOnChange.js -->
<g id="edge23" class="edge">
<title>src/components/Input/Input.js&#45;&gt;src/hoc/withValueOnChange.js</title>
<path fill="none" stroke="#000000" stroke-width="2" stroke-opacity="0.200000" d="M701.9,-196.26C712.51,-203.22 725.51,-213.81 732,-227 746.54,-256.55 724.7,-345.83 740,-375 748.2,-390.64 764.02,-402.76 777.63,-410.91"/>
<polygon fill="#000000" fill-opacity="0.200000" stroke="#000000" stroke-width="2" stroke-opacity="0.200000" points="776.66,-412.77 782.91,-413.94 778.75,-409.13 776.66,-412.77"/>
</g>
<!-- src/components/Input/Input.scss -->
<g id="node23" class="node">
<title>src/components/Input/Input.scss</title>
<g id="a_node23"><a xlink:href="src/components/Input/Input.scss" xlink:title="Input.scss">
<path fill="#ffffcc" stroke="black" d="M825.5,-196C825.5,-196 780.5,-196 780.5,-196 777.5,-196 774.5,-193 774.5,-190 774.5,-190 774.5,-184 774.5,-184 774.5,-181 777.5,-178 780.5,-178 780.5,-178 825.5,-178 825.5,-178 828.5,-178 831.5,-181 831.5,-184 831.5,-184 831.5,-190 831.5,-190 831.5,-193 828.5,-196 825.5,-196"/>
<text text-anchor="middle" x="803" y="-184.8" font-family="Helvetica,sans-Serif" font-size="9.00">Input.scss</text>
</a>
</g>
</g>
<!-- src/components/Input/Input.js&#45;&gt;src/components/Input/Input.scss -->
<g id="edge24" class="edge">
<title>src/components/Input/Input.js&#45;&gt;src/components/Input/Input.scss</title>
<path fill="none" stroke="#000000" stroke-width="2" stroke-opacity="0.200000" d="M711.64,-187C728.25,-187 749.93,-187 767.89,-187"/>
<polygon fill="#000000" fill-opacity="0.200000" stroke="#000000" stroke-width="2" stroke-opacity="0.200000" points="768.32,-189.1 774.32,-187 768.32,-184.9 768.32,-189.1"/>
</g>
<!-- src/components/LoadingOverflow/LoadingOverflow.scss -->
<g id="node25" class="node">
<title>src/components/LoadingOverflow/LoadingOverflow.scss</title>
<g id="a_node25"><a xlink:href="src/components/LoadingOverflow/LoadingOverflow.scss" xlink:title="LoadingOverflow.scss">
<path fill="#ffffcc" stroke="black" d="M850,-256C850,-256 756,-256 756,-256 753,-256 750,-253 750,-250 750,-250 750,-244 750,-244 750,-241 753,-238 756,-238 756,-238 850,-238 850,-238 853,-238 856,-241 856,-244 856,-244 856,-250 856,-250 856,-253 853,-256 850,-256"/>
<text text-anchor="middle" x="803" y="-244.8" font-family="Helvetica,sans-Serif" font-size="9.00">LoadingOverflow.scss</text>
</a>
</g>
</g>
<!-- src/components/LoadingOverflow/LoadingOverflow.js&#45;&gt;src/components/LoadingOverflow/LoadingOverflow.scss -->
<g id="edge26" class="edge">
<title>src/components/LoadingOverflow/LoadingOverflow.js&#45;&gt;src/components/LoadingOverflow/LoadingOverflow.scss</title>
<path fill="none" stroke="#000000" stroke-width="2" stroke-opacity="0.200000" d="M732.21,-247C736.04,-247 739.93,-247 743.82,-247"/>
<polygon fill="#000000" fill-opacity="0.200000" stroke="#000000" stroke-width="2" stroke-opacity="0.200000" points="743.92,-249.1 749.92,-247 743.92,-244.9 743.92,-249.1"/>
</g>
<!-- src/hoc/withLabel/withLabel.scss -->
<g id="node27" class="node">
<title>src/hoc/withLabel/withLabel.scss</title>
<g id="a_node27"><a xlink:href="src/hoc/withLabel/withLabel.scss" xlink:title="withLabel.scss">
<path fill="#ffffcc" stroke="black" d="M1029,-466C1029,-466 964,-466 964,-466 961,-466 958,-463 958,-460 958,-460 958,-454 958,-454 958,-451 961,-448 964,-448 964,-448 1029,-448 1029,-448 1032,-448 1035,-451 1035,-454 1035,-454 1035,-460 1035,-460 1035,-463 1032,-466 1029,-466"/>
<text text-anchor="middle" x="996.5" y="-454.8" font-family="Helvetica,sans-Serif" font-size="9.00">withLabel.scss</text>
</a>
</g>
</g>
<!-- src/hoc/withLabel/withLabel.js&#45;&gt;src/hoc/withLabel/withLabel.scss -->
<g id="edge29" class="edge">
<title>src/hoc/withLabel/withLabel.js&#45;&gt;src/hoc/withLabel/withLabel.scss</title>
<path fill="none" stroke="#000000" stroke-width="2" stroke-opacity="0.200000" d="M945.44,-457C947.46,-457 949.52,-457 951.58,-457"/>
<polygon fill="#000000" fill-opacity="0.200000" stroke="#000000" stroke-width="2" stroke-opacity="0.200000" points="951.78,-459.1 957.78,-457 951.78,-454.9 951.78,-459.1"/>
</g>
<!-- src/index.js -->
<g id="node28" class="node">
<title>src/index.js</title>
<g id="a_node28"><a xlink:href="src/index.js" xlink:title="index.js">
<path fill="#ffffcc" stroke="black" d="M71.5,-163C71.5,-163 29.5,-163 29.5,-163 26.5,-163 23.5,-160 23.5,-157 23.5,-157 23.5,-151 23.5,-151 23.5,-148 26.5,-145 29.5,-145 29.5,-145 71.5,-145 71.5,-145 74.5,-145 77.5,-148 77.5,-151 77.5,-151 77.5,-157 77.5,-157 77.5,-160 74.5,-163 71.5,-163"/>
<text text-anchor="middle" x="50.5" y="-151.8" font-family="Helvetica,sans-Serif" font-size="9.00">index.js</text>
</a>
</g>
</g>
<!-- src/index.js&#45;&gt;src/App.js -->
<g id="edge30" class="edge">
<title>src/index.js&#45;&gt;src/App.js</title>
<path fill="none" stroke="#000000" stroke-width="2" stroke-opacity="0.200000" d="M77.82,-145.32C88.01,-141.96 99.76,-138.09 110.44,-134.57"/>
<polygon fill="#000000" fill-opacity="0.200000" stroke="#000000" stroke-width="2" stroke-opacity="0.200000" points="111.2,-136.53 116.24,-132.66 109.88,-132.54 111.2,-136.53"/>
</g>
<!-- src/index.scss -->
<g id="node29" class="node">
<title>src/index.scss</title>
<g id="a_node29"><a xlink:href="src/index.scss" xlink:title="index.scss">
<path fill="#ffffcc" stroke="black" d="M167,-163C167,-163 120,-163 120,-163 117,-163 114,-160 114,-157 114,-157 114,-151 114,-151 114,-148 117,-145 120,-145 120,-145 167,-145 167,-145 170,-145 173,-148 173,-151 173,-151 173,-157 173,-157 173,-160 170,-163 167,-163"/>
<text text-anchor="middle" x="143.5" y="-151.8" font-family="Helvetica,sans-Serif" font-size="9.00">index.scss</text>
</a>
</g>
</g>
<!-- src/index.js&#45;&gt;src/index.scss -->
<g id="edge31" class="edge">
<title>src/index.js&#45;&gt;src/index.scss</title>
<path fill="none" stroke="#000000" stroke-width="2" stroke-opacity="0.200000" d="M77.82,-154C87.12,-154 97.74,-154 107.64,-154"/>
<polygon fill="#000000" fill-opacity="0.200000" stroke="#000000" stroke-width="2" stroke-opacity="0.200000" points="107.69,-156.1 113.69,-154 107.69,-151.9 107.69,-156.1"/>
</g>
<!-- src/reportWebVitals.js -->
<g id="node30" class="node">
<title>src/reportWebVitals.js</title>
<g id="a_node30"><a xlink:href="src/reportWebVitals.js" xlink:title="reportWebVitals.js">
<path fill="#ffffcc" stroke="black" d="M183,-193C183,-193 104,-193 104,-193 101,-193 98,-190 98,-187 98,-187 98,-181 98,-181 98,-178 101,-175 104,-175 104,-175 183,-175 183,-175 186,-175 189,-178 189,-181 189,-181 189,-187 189,-187 189,-190 186,-193 183,-193"/>
<text text-anchor="middle" x="143.5" y="-181.8" font-family="Helvetica,sans-Serif" font-size="9.00">reportWebVitals.js</text>
</a>
</g>
</g>
<!-- src/index.js&#45;&gt;src/reportWebVitals.js -->
<g id="edge32" class="edge">
<title>src/index.js&#45;&gt;src/reportWebVitals.js</title>
<path fill="none" stroke="#000000" stroke-width="2" stroke-opacity="0.200000" d="M77.82,-162.68C87.56,-165.89 98.74,-169.57 109.03,-172.97"/>
<polygon fill="#000000" fill-opacity="0.200000" stroke="#000000" stroke-width="2" stroke-opacity="0.200000" points="108.62,-175.04 114.97,-174.92 109.93,-171.05 108.62,-175.04"/>
</g>
<!-- src/services/CarService.test.js -->
<g id="node34" class="node">
<title>src/services/CarService.test.js</title>
<g id="a_node34"><a xlink:href="src/services/CarService.test.js" xlink:title="CarService.test.js">
<path fill="#ffffcc" stroke="black" d="M383.5,-499C383.5,-499 307.5,-499 307.5,-499 304.5,-499 301.5,-496 301.5,-493 301.5,-493 301.5,-487 301.5,-487 301.5,-484 304.5,-481 307.5,-481 307.5,-481 383.5,-481 383.5,-481 386.5,-481 389.5,-484 389.5,-487 389.5,-487 389.5,-493 389.5,-493 389.5,-496 386.5,-499 383.5,-499"/>
<text text-anchor="middle" x="345.5" y="-487.8" font-family="Helvetica,sans-Serif" font-size="9.00">CarService.test.js</text>
</a>
</g>
</g>
<!-- src/services/CarService.test.js&#45;&gt;src/services/CarService.js -->
<g id="edge36" class="edge">
<title>src/services/CarService.test.js&#45;&gt;src/services/CarService.js</title>
<path fill="none" stroke="#000000" stroke-width="2" stroke-opacity="0.200000" d="M389.68,-487.51C401.88,-486.81 415.11,-486.05 427.16,-485.35"/>
<polygon fill="#000000" fill-opacity="0.200000" stroke="#000000" stroke-width="2" stroke-opacity="0.200000" points="427.48,-487.44 433.35,-485 427.24,-483.25 427.48,-487.44"/>
</g>
<!-- src/services/CarService.test.js&#45;&gt;src/services/mockData.js -->
<g id="edge37" class="edge">
<title>src/services/CarService.test.js&#45;&gt;src/services/mockData.js</title>
<path fill="none" stroke="#000000" stroke-width="2" stroke-opacity="0.200000" d="M389.89,-495.27C400.99,-496.4 412.92,-497.43 424,-498 467.5,-500.24 478.55,-500.98 522,-498 528.16,-497.58 534.66,-496.9 541,-496.12"/>
<polygon fill="#000000" fill-opacity="0.200000" stroke="#000000" stroke-width="2" stroke-opacity="0.200000" points="541.58,-498.17 547.26,-495.31 541.04,-494 541.58,-498.17"/>
</g>
<!-- src/setupTests.js -->
<g id="node35" class="node">
<title>src/setupTests.js</title>
<g id="a_node35"><a xlink:href="src/setupTests.js" xlink:title="setupTests.js">
<path fill="#ccffcc" stroke="black" d="M79,-100C79,-100 22,-100 22,-100 19,-100 16,-97 16,-94 16,-94 16,-88 16,-88 16,-85 19,-82 22,-82 22,-82 79,-82 79,-82 82,-82 85,-85 85,-88 85,-88 85,-94 85,-94 85,-97 82,-100 79,-100"/>
<text text-anchor="middle" x="50.5" y="-88.8" font-family="Helvetica,sans-Serif" font-size="9.00">setupTests.js</text>
</a>
</g>
</g>
</g>
</svg>
